
<global>
amp_veltrack=0
ampeg_release=0.35
</global>

<group>
group_label=PP
xf_cccurve=gain
xfin_hicc1=64
xfout_hicc1=127
xfout_locc1=64

<region>
hikey=g#4
hivel=127
lokey=g4
loop_end=230897
loop_mode=loop_continuous
loop_start=82276
loop_xfade=37155
lovel=1
pitch_keycenter=g#4
sample=Cellos_dim5th_PP_G#4.opus
</region>

<region>
hikey=g#3
hivel=127
lokey=g3
loop_end=241145
loop_mode=loop_continuous
loop_start=85927
loop_xfade=38804
lovel=1
pitch_keycenter=g#3
sample=Cellos_dim5th_PP_G#3.opus
</region>

<region>
hikey=g#2
hivel=127
lokey=g2
loop_end=236490
loop_mode=loop_continuous
loop_start=84268
loop_xfade=38055
lovel=1
pitch_keycenter=g#2
sample=Cellos_dim5th_PP_G#2.opus
</region>

<region>
hikey=f#4
hivel=127
lokey=f4
loop_end=238059
loop_mode=loop_continuous
loop_start=84827
loop_xfade=38308
lovel=1
pitch_keycenter=f#4
sample=Cellos_dim5th_PP_F#4.opus
</region>

<region>
hikey=f#3
hivel=127
lokey=f3
loop_end=231717
loop_mode=loop_continuous
loop_start=82567
loop_xfade=37287
lovel=1
pitch_keycenter=f#3
sample=Cellos_dim5th_PP_F#3.opus
</region>

<region>
hikey=f#2
hivel=127
lokey=f2
loop_end=233811
loop_mode=loop_continuous
loop_start=83314
loop_xfade=37624
lovel=1
pitch_keycenter=f#2
sample=Cellos_dim5th_PP_F#2.opus
</region>

<region>
hikey=e4
hivel=127
lokey=d#4
loop_end=270631
loop_mode=loop_continuous
loop_start=96434
loop_xfade=43549
lovel=1
pitch_keycenter=e4
sample=Cellos_dim5th_PP_E4.opus
</region>

<region>
hikey=e3
hivel=127
lokey=d#3
loop_end=251194
loop_mode=loop_continuous
loop_start=89508
loop_xfade=40421
lovel=1
pitch_keycenter=e3
sample=Cellos_dim5th_PP_E3.opus
</region>

<region>
hikey=e2
hivel=127
lokey=d#2
loop_end=234701
loop_mode=loop_continuous
loop_start=83631
loop_xfade=37767
lovel=1
pitch_keycenter=e2
sample=Cellos_dim5th_PP_E2.opus
</region>

<region>
hikey=d4
hivel=127
lokey=c#4
loop_end=245477
loop_mode=loop_continuous
loop_start=87471
loop_xfade=39501
lovel=1
pitch_keycenter=d4
sample=Cellos_dim5th_PP_D4.opus
</region>

<region>
hikey=d3
hivel=127
lokey=c#3
loop_end=239982
loop_mode=loop_continuous
loop_start=85513
loop_xfade=38617
lovel=1
pitch_keycenter=d3
sample=Cellos_dim5th_PP_D3.opus
</region>

<region>
hikey=d2
hivel=127
lokey=c#2
loop_end=232135
loop_mode=loop_continuous
loop_start=82716
loop_xfade=37354
lovel=1
pitch_keycenter=d2
sample=Cellos_dim5th_PP_D2.opus
</region>

<region>
hikey=G5
hivel=127
lokey=b4
loop_end=237152
loop_mode=loop_continuous
loop_start=84504
loop_xfade=38162
lovel=1
pitch_keycenter=C5
sample=Cellos_dim5th_PP_C5.opus
</region>

<region>
hikey=c4
hivel=127
lokey=b3
loop_end=237768
loop_mode=loop_continuous
loop_start=84724
loop_xfade=38261
lovel=1
pitch_keycenter=c4
sample=Cellos_dim5th_PP_C4.opus
</region>

<region>
hikey=c3
hivel=127
lokey=b2
loop_end=233492
loop_mode=loop_continuous
loop_start=83200
loop_xfade=37573
lovel=1
pitch_keycenter=c3
sample=Cellos_dim5th_PP_C3.opus
</region>

<region>
hivel=127
key=c2
loop_end=262106
loop_mode=loop_continuous
loop_start=93396
loop_xfade=42177
lovel=1
sample=Cellos_dim5th_PP_C2.opus
</region>

<region>
hikey=a#4
hivel=127
lokey=a4
loop_end=237211
loop_mode=loop_continuous
loop_start=84525
loop_xfade=38171
lovel=1
pitch_keycenter=a#4
sample=Cellos_dim5th_PP_A#4.opus
</region>

<region>
hikey=a#3
hivel=127
lokey=a3
loop_end=240942
loop_mode=loop_continuous
loop_start=85855
loop_xfade=38771
lovel=1
pitch_keycenter=a#3
sample=Cellos_dim5th_PP_A#3.opus
</region>

<region>
hikey=a#2
hivel=127
lokey=a2
loop_end=233471
loop_mode=loop_continuous
loop_start=83193
loop_xfade=37569
lovel=1
pitch_keycenter=a#2
sample=Cellos_dim5th_PP_A#2.opus
</region>
</group>

<group>
group_label=FF
xf_cccurve=gain
xfin_hicc1=127
xfin_locc1=64
xfout_hicc1=127
xfout_locc1=127

<region>
hikey=g#4
hivel=127
lokey=g4
loop_end=236296
loop_mode=loop_continuous
loop_start=84199
loop_xfade=38024
lovel=1
pitch_keycenter=g#4
sample=Cellos_dim5th_FF_G#4.opus
</region>

<region>
hikey=g#3
hivel=127
lokey=g3
loop_end=236359
loop_mode=loop_continuous
loop_start=84222
loop_xfade=38034
lovel=1
pitch_keycenter=g#3
sample=Cellos_dim5th_FF_G#3.opus
</region>

<region>
hikey=g#2
hivel=127
lokey=g2
loop_end=238639
loop_mode=loop_continuous
loop_start=85034
loop_xfade=38401
lovel=1
pitch_keycenter=g#2
sample=Cellos_dim5th_FF_G#2.opus
</region>

<region>
hikey=f#4
hivel=127
lokey=f4
loop_end=241777
loop_mode=loop_continuous
loop_start=86152
loop_xfade=38906
lovel=1
pitch_keycenter=f#4
sample=Cellos_dim5th_FF_F#4.opus
</region>

<region>
hikey=f#3
hivel=127
lokey=f3
loop_end=231275
loop_mode=loop_continuous
loop_start=82410
loop_xfade=37216
lovel=1
pitch_keycenter=f#3
sample=Cellos_dim5th_FF_F#3.opus
</region>

<region>
hikey=f#2
hivel=127
lokey=f2
loop_end=237562
loop_mode=loop_continuous
loop_start=84650
loop_xfade=38228
lovel=1
pitch_keycenter=f#2
sample=Cellos_dim5th_FF_F#2.opus
</region>

<region>
hikey=e4
hivel=127
lokey=d#4
loop_end=235055
loop_mode=loop_continuous
loop_start=83757
loop_xfade=37824
lovel=1
pitch_keycenter=e4
sample=Cellos_dim5th_FF_E4.opus
</region>

<region>
hikey=e3
hivel=127
lokey=d#3
loop_end=233580
loop_mode=loop_continuous
loop_start=83231
loop_xfade=37587
lovel=1
pitch_keycenter=e3
sample=Cellos_dim5th_FF_E3.opus
</region>

<region>
hikey=e2
hivel=127
lokey=d#2
loop_end=238848
loop_mode=loop_continuous
loop_start=85109
loop_xfade=38434
lovel=1
pitch_keycenter=e2
sample=Cellos_dim5th_FF_E2.opus
</region>

<region>
hikey=d4
hivel=127
lokey=c#4
loop_end=230567
loop_mode=loop_continuous
loop_start=82158
loop_xfade=37102
lovel=1
pitch_keycenter=d4
sample=Cellos_dim5th_FF_D4.opus
</region>

<region>
hikey=d3
hivel=127
lokey=c#3
loop_end=235755
loop_mode=loop_continuous
loop_start=84007
loop_xfade=37937
lovel=1
pitch_keycenter=d3
sample=Cellos_dim5th_FF_D3.opus
</region>

<region>
hikey=d2
hivel=127
lokey=c#2
loop_end=236859
loop_mode=loop_continuous
loop_start=84400
loop_xfade=38114
lovel=1
pitch_keycenter=d2
sample=Cellos_dim5th_FF_D2.opus
</region>

<region>
hikey=G5
hivel=127
lokey=b4
loop_end=236039
loop_mode=loop_continuous
loop_start=84108
loop_xfade=37982
lovel=1
pitch_keycenter=C5
sample=Cellos_dim5th_FF_C5.opus
</region>

<region>
hikey=c4
hivel=127
lokey=b3
loop_end=231910
loop_mode=loop_continuous
loop_start=82636
loop_xfade=37318
lovel=1
pitch_keycenter=c4
sample=Cellos_dim5th_FF_C4.opus
</region>

<region>
hikey=c3
hivel=127
lokey=b2
loop_end=237245
loop_mode=loop_continuous
loop_start=84537
loop_xfade=38177
lovel=1
pitch_keycenter=c3
sample=Cellos_dim5th_FF_C3.opus
</region>

<region>
hivel=127
key=c2
loop_end=232314
loop_mode=loop_continuous
loop_start=82780
loop_xfade=37383
lovel=1
sample=Cellos_dim5th_FF_C2.opus
</region>

<region>
hikey=a#4
hivel=127
lokey=a4
loop_end=238447
loop_mode=loop_continuous
loop_start=84966
loop_xfade=38370
lovel=1
pitch_keycenter=a#4
sample=Cellos_dim5th_FF_A#4.opus
</region>

<region>
hikey=a#3
hivel=127
lokey=a3
loop_end=232337
loop_mode=loop_continuous
loop_start=82788
loop_xfade=37387
lovel=1
pitch_keycenter=a#3
sample=Cellos_dim5th_FF_A#3.opus
</region>

<region>
hikey=a#2
hivel=127
lokey=a2
loop_end=239010
loop_mode=loop_continuous
loop_start=85166
loop_xfade=38461
lovel=1
pitch_keycenter=a#2
sample=Cellos_dim5th_FF_A#2.opus
</region>
</group>